<?xml version="1.0" standalone="no"?>
<!DOCTYPE svg PUBLIC "-//W3C//DTD SVG 20010904//EN"
 "http://www.w3.org/TR/2001/REC-SVG-20010904/DTD/svg10.dtd">
<svg version="1.0" xmlns="http://www.w3.org/2000/svg"
 width="50.000000pt" height="58.000000pt" viewBox="0 0 50.000000 58.000000"
 preserveAspectRatio="xMidYMid meet">
<metadata>
Created by potrace 1.15, written by Peter Selinger 2001-2017
</metadata>
<g transform="translate(0.000000,58.000000) scale(0.100000,-0.100000)"
fill="#000000" stroke="none">
<path d="M167 573 c-4 -3 -7 -14 -7 -24 0 -20 -29 -34 -44 -19 -16 16 -51 12
-69 -8 -21 -23 -21 -31 -2 -52 19 -22 10 -48 -18 -52 -17 -2 -23 -11 -25 -39
-3 -33 0 -38 27 -47 36 -13 36 -15 15 -47 -29 -44 26 -96 65 -61 23 21 51 11
51 -19 0 -16 7 -25 24 -29 35 -9 53 1 65 35 11 32 23 36 41 14 17 -20 43 -19
63 3 21 23 22 46 3 62 -20 15 -10 37 20 44 45 12 40 86 -6 86 -23 0 -32 36
-14 51 19 16 18 33 -4 52 -21 19 -57 22 -67 7 -11 -18 -26 -10 -36 20 -9 25
-16 30 -43 30 -18 0 -36 -3 -39 -7z m88 -138 c52 -51 16 -138 -57 -138 -39 0
-78 41 -78 84 0 40 39 79 80 79 19 0 40 -9 55 -25z"/>
<path d="M383 186 c-4 -7 -19 -13 -33 -12 -21 1 -25 -3 -23 -26 1 -19 -3 -28
-13 -28 -18 0 -19 -39 0 -46 8 -3 11 -15 8 -30 -4 -24 2 -28 41 -25 9 1 17 -3
17 -8 0 -6 11 -11 25 -11 14 0 25 5 25 11 0 6 8 8 19 4 22 -7 44 16 35 38 -3
8 -1 18 5 22 14 8 14 45 0 45 -6 0 -9 9 -6 20 6 23 -14 43 -35 35 -9 -4 -18 1
-21 9 -8 20 -33 21 -44 2z"/>
</g>
</svg>
